<?xml version="1.0" encoding="UTF-8"?>
<svg id="Layer_1" xmlns="http://www.w3.org/2000/svg" version="1.1" viewBox="0 0 18 18">
  <!-- Generator: Adobe Illustrator 29.8.3, SVG Export Plug-In . SVG Version: 2.1.1 Build 3)  -->
  <path d="M2.8,4.9v-2s-.1-.3-.2-.3c-.3-.3-.8,0-.9.3v3.6c0,.3.3.5.6.5,1.1,0,2.4,0,3.5,0,.5-.1.6-.8.1-1s-.2,0-.2,0h-2.1c.9-1.1,1.9-2.1,3.3-2.6,4.6-1.7,9.2,2.3,8.2,7s-5.9,6.4-9.5,3.9-1-.9-1.2-.9c-.6-.2-1,.5-.5,1,3.2,3.3,8.9,2.5,11.3-1.3C19.2,6.6,12.1-1,5.4,2.6s-1.8,1.4-2.6,2.3Z"/>
</svg>